<?xml version="1.0" ?><svg viewBox="0 0 1000 1000" xmlns="http://www.w3.org/2000/svg"><path d="m382.05 297.74a277.21 277.21 0 0 0 27 25.63c1.2 1 2.93-.67 1.74-1.74-4.64-4.13-9.4-8.13-14-12.26s-9.23-8.37-13.79-12.59a.68.68 0 0 0 -1 1z"/><path d="m318 229.47c8.21 3.44 15.13 9.32 21.68 15.34 15.12 13.89 29.08 29 43 44.07a22.83 22.83 0 0 1 4.75 6.58c2.62 6.48-1.15 13.69-5.21 19.39a144.3 144.3 0 0 1 -28.77 30.09c-2.31 1.81-5 3.64-7.9 3.3a11.52 11.52 0 0 1 -4.32-1.75 209.15 209.15 0 0 1 -38-28.25c-3-2.83-6-5.82-7.78-9.54s-2.2-8.33-.08-11.87" fill="#fff"/><path d="m317.56 230.15c6.2 2.87 11.6 7 16.74 11.45 5.5 4.75 10.73 9.82 15.89 14.92 10.53 10.42 20.59 21.29 30.63 32.17 2.32 2.51 4.94 5.05 5.85 8.46.87 3.24.09 6.65-1.2 9.66a45.26 45.26 0 0 1 -5.11 8.49q-3.15 4.32-6.6 8.39a146.13 146.13 0 0 1 -14.13 14.46 94.27 94.27 0 0 1 -8.2 6.73 10.88 10.88 0 0 1 -4.21 2.05c-1.84.34-3.45-.42-5-1.31-13.82-7.85-26.37-17.59-38.1-28.26-1.17-1.07-2.9.64-1.75 1.75a198.27 198.27 0 0 0 35.48 26.89c2.92 1.76 6 4 9.64 3.46 3.31-.53 6-2.92 8.54-5a144.06 144.06 0 0 0 16-15.06 116 116 0 0 0 13.13-16.77c3.48-5.6 6.1-12.68 2.76-18.95-1.71-3.21-4.55-5.82-7-8.46q-4.05-4.38-8.13-8.74c-5.33-5.7-10.7-11.35-16.19-16.9-6.07-6.14-12.25-12.17-18.69-17.91-5.91-5.27-12.3-10.08-19.74-13-.82-.32-1.41 1.07-.6 1.44z"/><path d="m278.87 230.46c-5-5.11-12.6-6.4-19.69-7.15-10.4-1.11-21.53-1.5-30.65 3.63-6.48 3.64-11.25 9.75-14.83 16.27-9.83 17.87-11.58 39-12.34 59.34-.44 11.78-.63 23.61.81 35.31.75 6.1 1.93 12.29.93 18.36-.4 2.43-1.15 4.83-1 7.28.28 5.61 5 9.94 9.61 13.1 15.1 10.25 33.36 15 51.55 16.56s36.48-.11 54.66-1.73c6.52-.58 13.87-1.61 17.68-6.92 4-5.55 2.3-13.12 2.44-19.94.15-7.59 2.78-14.9 5.77-21.88 5.42-12.66 12.16-24.83 15.93-38.08s4.23-28.17-2.59-40.14a37.23 37.23 0 0 0 -26.15-18.07" fill="#fff"/><path d="m360.38 264.08c-.93-1.93-2.85-3.46-4.39-4.91-1.3-1.22-2.62-2.43-4-3.61a62.76 62.76 0 0 0 -6.91-5.38 39.86 39.86 0 0 0 -13.71-5.18 1.43 1.43 0 1 0 -.38 2.82 32 32 0 0 1 7 1.51 28.73 28.73 0 0 1 6 3 55.45 55.45 0 0 1 6.57 5.16c1.36 1.2 2.68 2.44 4 3.69s2.93 3.1 4.77 3.93a.78.78 0 0 0 1.05-1.05z"/><path d="m279.41 229.92c-3.9-4.21-9.43-6.07-15-7a97.3 97.3 0 0 0 -18.11-1.48 39.55 39.55 0 0 0 -17.7 4 36.83 36.83 0 0 0 -12.76 11.84c-7.21 10.33-11 22.86-13.08 35.17-2.21 13.14-2.73 26.59-2.94 39.89a196.7 196.7 0 0 0 .67 21.58c.66 7.08 2.48 14.34 1.47 21.47-.46 3.27-1.54 6.38-.95 9.71a15.12 15.12 0 0 0 3.83 7.28c3.94 4.46 9.53 7.62 14.75 10.32 24.34 12.57 52.41 13.3 79.12 11.52 7-.47 14-1 21-1.73 5.21-.54 10.8-1.49 14.88-5.05 4.41-3.84 5.05-9.73 4.9-15.23-.08-3-.34-6-.16-9a42.42 42.42 0 0 1 2-10.09 100.68 100.68 0 0 1 3.68-9.67 1.43 1.43 0 1 0 -2.63-1.11c-2.59 6.13-4.73 12.37-5.42 19-.59 5.72.73 11.57-.31 17.23a12.17 12.17 0 0 1 -3.58 6.9 16 16 0 0 1 -6.7 3.39c-5.74 1.57-11.93 1.67-17.83 2.16-26.16 2.2-53.32 3.26-78.29-6.2a86.61 86.61 0 0 1 -16.52-8.3c-4.38-2.84-9.56-6.65-10.39-12.2-.48-3.25.84-6.56 1.17-9.77a46.42 46.42 0 0 0 -.34-10.4c-.82-6.82-1.64-13.58-1.85-20.47a312.77 312.77 0 0 1 1.38-39.55c1.21-12.32 3.58-24.75 8.87-36a53.54 53.54 0 0 1 9.43-14.44 30.11 30.11 0 0 1 14.67-8.6c6-1.49 12.2-1.46 18.29-1 5.51.4 11.19.9 16.42 2.78a19.92 19.92 0 0 1 7 4.16.76.76 0 0 0 1.08-1.08z"/><path d="m324.13 320a99.19 99.19 0 0 0 3.49-73.28c2.2-2.16 6.15-1.32 8.24 1s2.79 5.46 3.31 8.5a141.08 141.08 0 0 1 -7.36 73.65"/><path d="m324.85 320.4a100.64 100.64 0 0 0 7.91-57.57 96.82 96.82 0 0 0 -4.07-16.42l-.29 1.08c1.76-1.59 4.54-.94 6.2.48 2.07 1.78 2.78 4.71 3.27 7.28a124.22 124.22 0 0 1 2 18.15 139.86 139.86 0 0 1 -9.13 56.1c-.53 1.38 1.68 2 2.2.61a142.57 142.57 0 0 0 8.85-38.92 140.06 140.06 0 0 0 .24-20.07q-.3-5-1-10a58.61 58.61 0 0 0 -1.61-9c-.83-2.84-2.39-5.64-5.17-7a6.63 6.63 0 0 0 -7.42.8 1.08 1.08 0 0 0 -.29 1.08 98.6 98.6 0 0 1 2.34 57 95.33 95.33 0 0 1 -5.47 15.55c-.44 1 1 1.8 1.43.83z"/><path d="m320.32 242.86a9.39 9.39 0 0 1 4.38 2.48 11.66 11.66 0 0 1 2.14 4.52c1.14 3.7 2.28 7.41 3.19 11.18a.83.83 0 0 1 -1 1.24 18.24 18.24 0 0 1 -9.13-3.28 14.47 14.47 0 0 1 -1.68 4.63 6 6 0 0 1 -2 2.26 2.77 2.77 0 0 1 -2.88.11 4.08 4.08 0 0 1 -1.36-1.87 45.05 45.05 0 0 1 -3.66-24.23" fill="#18c4ff"/><path d="m320.13 243.54c2.47.9 4.29 2.18 5.22 4.71s1.49 5 2.16 7.45c.34 1.25.65 2.5 1 3.75a13.58 13.58 0 0 0 .52 1.8s-1.28-.25-1.57-.3a18 18 0 0 1 -7-3 1.14 1.14 0 0 0 -1.66.67c-.34 1.74-1.77 7.15-4.46 6.5-1.28-.32-1.89-2.82-2.3-3.88-.51-1.33-.95-2.69-1.33-4.07a49.47 49.47 0 0 1 -1.28-17.35c.1-1.23-2-1.53-2.16-.3a43.65 43.65 0 0 0 2.41 21.91c1 2.76 2.37 6.92 6.16 5.79 3.13-.94 4.58-5.15 5.14-8l-1.66.67a19.67 19.67 0 0 0 8.87 3.39c1.23.15 2.7.12 3-1.39a5 5 0 0 0 -.31-2.12c-.23-.94-.49-1.87-.77-2.8a81.62 81.62 0 0 0 -3.24-9.81c-1.23-2.79-3.48-4.24-6.35-5a.71.71 0 0 0 -.38 1.36z"/><path d="m359.23 179.52c3.38 10.19-3.9 22.12.87 31.73a7.5 7.5 0 0 1 1.07 2.8c.12 2-1.62 3.25-3.69 3.92a6 6 0 0 0 -4.07 4.1 49.25 49.25 0 0 1 -4 10.84c-2.39 4.46-4.57 10.26-9.35 11.93s-11.78-1-16.78-2.24c-1.28-.33-2.71-.65-3.85 0a5.1 5.1 0 0 0 -1.67 2q-3.67 6.43-7.19 13a6.43 6.43 0 0 1 -2.41 2.92c-1.45.76-3.21.31-4.75-.23a46.68 46.68 0 0 1 -26.57-24.29 4.72 4.72 0 0 1 -.59-3.21 5.42 5.42 0 0 1 2.2-2.48c11-8.39 19.78-24.58 23.95-37.77 1.32-4.21-1.36-6.27 0-10.47 1.88-6 3.81-12 7.4-17.14s9.16-9.23 15.4-9.49a30.55 30.55 0 0 1 6.6.67c6.14 1.08 12.43 2.22 17.78 5.4s9.64 8.93 9.29 15.14" fill="#fff"/><path d="m358.48 179.73c2.85 9.21-2.45 18.6-.68 27.91a16.46 16.46 0 0 0 1 3.21c.44 1.07 1.42 2.32 1.32 3.53-.18 2.24-3.44 2.49-4.92 3.5-2.06 1.42-2.66 3.39-3.32 5.68a46.15 46.15 0 0 1 -3 8c-1.82 3.66-3.55 8.06-6.69 10.8-3.62 3.16-8.93 1.83-13.1.72-2.22-.59-4.42-1.38-6.67-1.78a4.78 4.78 0 0 0 -5.4 2.45c-1.56 2.57-3 5.24-4.42 7.87-.68 1.23-1.35 2.46-2 3.69a14.5 14.5 0 0 1 -2.27 3.76c-1.87 1.79-5.2 0-7.17-.84a44.93 44.93 0 0 1 -6.07-3.18 46.14 46.14 0 0 1 -10.58-9.12 43.25 43.25 0 0 1 -4.2-5.78q-.85-1.38-1.59-2.82c-.57-1.1-1.46-2.46-1.46-3.73s1.38-2.05 2.27-2.73 1.67-1.36 2.47-2.08a55.27 55.27 0 0 0 4.8-5 88.73 88.73 0 0 0 14.38-24.58c.82-2 1.58-4.11 2.23-6.22a11.88 11.88 0 0 0 0-6.29 9.59 9.59 0 0 1 -.27-2.87 19.75 19.75 0 0 1 1.1-4c.82-2.55 1.67-5.09 2.73-7.55 2-4.7 4.81-9.2 9-12.29a18.37 18.37 0 0 1 6.2-3.07 18.81 18.81 0 0 1 8-.09c9.79 1.61 21.18 3.63 26.33 13.2a13.13 13.13 0 0 1 1.6 6.6c0 1.06 1.57 1 1.64 0a16.6 16.6 0 0 0 -5.31-12.63c-3.76-3.75-8.77-5.84-13.84-7.16-2.75-.71-5.54-1.21-8.34-1.7a27.9 27.9 0 0 0 -8.59-.61 21.06 21.06 0 0 0 -12.44 6.95c-3.68 4-6 9-7.81 14.05a39.1 39.1 0 0 0 -2.41 7.8c-.29 2.2.58 4.19.68 6.36.12 2.36-1.06 4.81-1.88 7-.89 2.37-1.88 4.71-2.95 7a91.12 91.12 0 0 1 -7.63 13.31 57.08 57.08 0 0 1 -9.88 11.16c-1.74 1.48-4.31 2.79-4.29 5.41 0 2.28 1.65 4.75 2.76 6.68a47.93 47.93 0 0 0 21.52 19.54c2.13 1 4.54 2.14 6.91 2.21 2.87.08 4.32-2 5.54-4.3q2.22-4.14 4.52-8.23 1.14-2.06 2.31-4.09c.85-1.47 1.61-2.26 3.41-1.93 5 .91 9.61 3.16 14.74 3.06 4.66-.09 7.88-2.76 10.23-6.6a62.63 62.63 0 0 0 6.49-14c.82-2.66 1.06-5.58 3.95-6.79 1.85-.78 3.89-1.47 4.61-3.58.84-2.47-1.12-4.62-1.83-6.87a20.9 20.9 0 0 1 -.75-7.3c.25-5.07 1.52-10 1.54-15.13a22.19 22.19 0 0 0 -1-7c-.31-.94-1.79-.54-1.5.42z"/><path d="m350.78 201.64a1.34 1.34 0 0 0 -.29-1.23 1.52 1.52 0 0 0 -.82-.45 1.79 1.79 0 0 0 -.73 0 2.05 2.05 0 0 0 -.49.18l-.23.14a2.18 2.18 0 0 0 -.4.34 2.32 2.32 0 0 0 -.48.92 1.86 1.86 0 0 0 0 1 1.68 1.68 0 0 0 .71.94 1.7 1.7 0 0 0 .88.25 1.83 1.83 0 0 0 .91-.25 1.24 1.24 0 0 0 .6-.78 1.39 1.39 0 0 0 0-.73 1.2 1.2 0 0 0 -.26-.45l-.21-.15a.75.75 0 0 0 -.38-.13.62.62 0 0 0 -.27 0 .59.59 0 0 0 -.26.07.61.61 0 0 0 -.22.13.8.8 0 0 0 -.26.29v.06l.16-.21-.06.06.22-.17a1.51 1.51 0 0 0 -.28.22l-.06.06.22-.17a.35.35 0 0 1 -.12.07l.26-.11a.47.47 0 0 1 -.17 0h.29-.18.29-.16l.26.11a.41.41 0 0 1 -.11-.07l.22.17-.09-.08.17.22-.09-.15.11.25a.59.59 0 0 1 -.05-.19v.29a1 1 0 0 1 0-.25v.28a1.28 1.28 0 0 1 .07-.28l-.1.25a1.68 1.68 0 0 1 .2-.34l-.16.21a1.58 1.58 0 0 1 .22-.23l-.2.16a1 1 0 0 1 .23-.13l-.24.1a.83.83 0 0 1 .21-.06h-.26.19-.26.17l-.22-.09h.1a1.55 1.55 0 0 0 .29.14l-.22-.09a.35.35 0 0 1 .12.07l-.17-.14.08.09-.12-.17.06.11.12.16.16.12a.76.76 0 0 0 .49.09.78.78 0 0 0 .65-.56z"/><path d="m354.51 197.19a2 2 0 0 0 -.7-1.34 4.22 4.22 0 0 0 -1-.85 11.4 11.4 0 0 0 -2.33-.78l.43.18h-.08l-1.41 3.34c.42.06.83.09 1.24.15l-.49-.07a13.25 13.25 0 0 1 2.5.62l1-3.58a19.32 19.32 0 0 0 -2.7-.56c-.57-.08-1.15-.15-1.73-.2a7.3 7.3 0 0 0 -1.4-.06 2 2 0 0 0 -1.32.54 1.87 1.87 0 0 0 1.32 3.19h.46a1.72 1.72 0 0 0 1.54-1 1.66 1.66 0 0 0 -.35-1.83l-.34-.29-1.31 3.19h1.29s.87.07 1.3.13l-.5-.07a19.79 19.79 0 0 1 2.75.59 1.88 1.88 0 0 0 2.29-1.29 1.91 1.91 0 0 0 -1.3-2.29 11.61 11.61 0 0 0 -1.66-.45 9.88 9.88 0 0 0 -2.09-.26 1.83 1.83 0 1 0 .49 3.59h.08l-.48.06h1 .48a1.83 1.83 0 0 1 .47 0h-.24.29a3 3 0 0 0 .67 0 .53.53 0 0 1 -.33 0c-.13 0-.13 0 0 0a1.83 1.83 0 0 1 .25.06.7.7 0 0 1 .19.06c.24.08 0 0 0 0s.55.22.4.18a1.18 1.18 0 0 0 .41.05 1 1 0 0 0 1-1z"/><path d="m319.67 194.16.22.14c.07 0-.12-.11 0 0l.1.1.08.09c.06.06-.1-.15 0 0a1.32 1.32 0 0 1 .12.2l.06.13c0-.06-.05-.15 0 0a2.68 2.68 0 0 1 .07.27v.14s0 .2 0 .31-.05.4-.05.6c0-.07 0-.17 0 0a.43.43 0 0 1 0 .11s0 .13 0 .14l.05-.12s0 0 0 0a.7.7 0 0 1 .29-.19c-.13.05.23 0 .09 0a.84.84 0 0 1 .31.08.47.47 0 0 1 .21.25.54.54 0 0 1 0 .65.56.56 0 0 1 -.57.26c.07 0 .07 0 0 0s-.07 0 0 0a.84.84 0 0 0 .31.12.85.85 0 0 0 .89-.3.83.83 0 0 0 .07-.94 1.37 1.37 0 0 0 -1.17-.6 1.2 1.2 0 0 0 -1.11.85 1.09 1.09 0 0 0 .51 1.21 1.22 1.22 0 0 0 1.17 0 1.92 1.92 0 0 0 .7-1.78 3.57 3.57 0 0 0 -.39-1.67 2.54 2.54 0 0 0 -1.34-1.18.73.73 0 0 0 -.85.41.71.71 0 0 0 .3.89z"/><path d="m318.31 187.25c2.61-1 5.67.56 7.16 2.92s1.71 5.29 1.58 8.07c-.42 8.95-4.06 17.36-6.82 25.88a12 12 0 0 0 -.83 4.49 4.38 4.38 0 0 0 2.26 3.75 6.76 6.76 0 0 0 -.86 12.24 4.6 4.6 0 0 1 1.22.8 3.8 3.8 0 0 1 .62 1.24 10.51 10.51 0 0 0 9.95 6.51 4.89 4.89 0 0 1 1.48.06 4.58 4.58 0 0 1 1.58 1 12.51 12.51 0 0 0 9 3.18c3.24-.29 6.38-2.54 7.14-5.7 5.79-.09 10.73-6.08 9.72-11.77 2-.71 1.64.25 2.3-1.78a7.48 7.48 0 0 0 .43-4.14 3 3 0 0 0 -3-2.4c-1.24-6.21-1.7-14.42-7.63-16.68-4-1.51-11-2-15.14-3.13a7.09 7.09 0 0 1 -4.09-2.39 7.49 7.49 0 0 1 -1-4 57.82 57.82 0 0 1 .76-12.74 4.69 4.69 0 0 1 1-2.48 6.77 6.77 0 0 1 2.35-1.23 8.83 8.83 0 0 0 5.25-8.51 4.25 4.25 0 0 0 -.66-2.17c-1-1.4-2.93-1.63-4.64-1.58a29.84 29.84 0 0 0 -17.54 6.39"/><path d="m318.5 187.93c4.79-1.51 7.35 3.94 7.53 7.79a41.89 41.89 0 0 1 -2.11 13.54c-1.31 4.46-3 8.8-4.51 13.19-1.25 3.62-2.73 8.81 1.57 11.09l.32-2.49a8.11 8.11 0 0 0 -2.36 13.9c.61.51 1.62.81 2.11 1.41s.8 1.91 1.34 2.73a12 12 0 0 0 9.47 5.41c.49 0 1-.08 1.48 0a2.45 2.45 0 0 1 1.36.7 18.41 18.41 0 0 0 2.62 1.84 13.55 13.55 0 0 0 6.07 1.77c4.27.14 8.51-2.51 9.65-6.72l-1.29 1a11.83 11.83 0 0 0 11-13.47l-.93 1.64c.77-.25 1.79-.22 2.39-.83a7.25 7.25 0 0 0 1.24-3.31c.64-3-.58-7-4.28-6.79l1.29 1c-1-5.19-1.31-11.86-5.55-15.64-2.2-2-5.12-2.58-8-3.1-3.17-.59-6.39-.92-9.52-1.67-1.58-.37-3.49-.85-4.37-2.36s-.74-4.07-.74-5.91a59.16 59.16 0 0 1 .35-6.38c.18-1.61.11-4.66 1.69-5.58.7-.41 1.52-.6 2.23-1a9.33 9.33 0 0 0 2-1.4 10.14 10.14 0 0 0 2.58-3.84c1.05-2.69 1.1-6.64-1.85-8.13a10.07 10.07 0 0 0 -5.22-.63 31.12 31.12 0 0 0 -5.9 1 31.65 31.65 0 0 0 -11.16 5.62c-1.13.89.47 2.47 1.59 1.59a28.9 28.9 0 0 1 9.57-4.91 27.87 27.87 0 0 1 5.28-1c1.48-.14 3.32-.38 4.71.27 1.57.72 1.54 2.77 1.22 4.23a7.9 7.9 0 0 1 -2.15 3.94c-1.18 1.17-2.59 1.51-4 2.28a4.87 4.87 0 0 0 -2.25 3.71 58.78 58.78 0 0 0 -.84 11.62 13.08 13.08 0 0 0 .79 5.27 6.27 6.27 0 0 0 3.28 3c5.4 2.36 11.75 1.53 17.15 3.9 2.66 1.17 3.91 4 4.68 6.6.88 3 1.24 6.14 1.85 9.21a1.34 1.34 0 0 0 1.28 1c2.47-.14 1.8 3.26 1.37 4.65a3.58 3.58 0 0 0 -.32 1c0 .32.43-.28.41-.3s-1.38.3-1.52.35a1.38 1.38 0 0 0 -.93 1.64c.77 4.93-3.5 9.91-8.43 10.08a1.37 1.37 0 0 0 -1.29 1 6.87 6.87 0 0 1 -6.86 4.74 10.41 10.41 0 0 1 -4.92-1.41c-1.43-.79-2.66-2.33-4.25-2.77s-3 0-4.52-.43a9.36 9.36 0 0 1 -4-2.36 12.77 12.77 0 0 1 -2.33-3.81c-.75-1.5-2.43-1.82-3.49-3a5.47 5.47 0 0 1 2-8.61 1.38 1.38 0 0 0 .33-2.49c-2.15-1.14-1.68-3.89-1.13-5.83.68-2.38 1.52-4.72 2.3-7.06a95.72 95.72 0 0 0 4-14.26c.72-4.24 1.32-9.22-.6-13.25-1.51-3.17-5.25-5.48-8.75-4.21-.84.31-.5 1.63.37 1.36z"/><path d="m339.77 177.37a62.87 62.87 0 0 0 15.77 3.15c1.87.13 3.88.13 5.43-.91s2.24-3.53.87-4.8c2.56-.44 5.18-1.79 6.15-4.19s-.66-5.76-3.26-5.7c.67-1.79-.5-3.7-1.73-5.16-6-7-15.92-11.57-24.69-8.59a18.61 18.61 0 0 1 -4.16 1.25c-4.1.41-8-3.24-12-2.31a10.9 10.9 0 0 0 -3.53 1.79l-6.07 4.1c-4.47 3-9 6-12.65 10s-6.43 9-6.67 14.34a42.42 42.42 0 0 0 1 8.75 93.62 93.62 0 0 1 1.17 18.77 139.15 139.15 0 0 0 20.16-10.12 8.58 8.58 0 0 1 .56-9"/><path d="m339.52 178.25a52.54 52.54 0 0 0 17.23 3.54c2.22 0 4.68-.42 6.07-2.32a4.28 4.28 0 0 0 -.12-5.52l-.54 2c3.18-.6 6.74-2.56 7.27-6.06.44-3-1.56-6.14-4.7-6.23l1.18 1.55c1.14-3.76-2.54-7.21-5.1-9.43a28.88 28.88 0 0 0 -9.49-5.54 21.62 21.62 0 0 0 -10.64-1c-1.95.33-3.69 1.18-5.58 1.68s-3.87-.07-5.75-.76a20 20 0 0 0 -5.19-1.47 8.66 8.66 0 0 0 -5.4 1.59c-3.84 2.44-7.63 5-11.34 7.64-6.53 4.64-12.95 10.5-14.88 18.6-1.2 5 .12 9.93.82 14.91a98.7 98.7 0 0 1 .86 16.3 1.15 1.15 0 0 0 1.45 1.11 139.86 139.86 0 0 0 20.4-10.32 1.07 1.07 0 0 0 .37-1.44 7.54 7.54 0 0 1 .41-8.06c.64-.94-.88-1.81-1.53-.89a9.9 9.9 0 0 0 -.69 10l.37-1.44a146.28 146.28 0 0 1 -19.94 9.91l1.46 1.11a87.25 87.25 0 0 0 -.35-13c-.44-4.34-1.6-8.66-1.74-13-.23-7.81 4.88-14.25 10.64-18.95 3.14-2.56 6.56-4.75 9.93-7 1.78-1.19 3.54-2.46 5.37-3.57a6.18 6.18 0 0 1 5.27-.71c3.32.93 6.34 2.77 9.9 1.89 1.79-.44 3.44-1.27 5.25-1.64a17.42 17.42 0 0 1 4.78-.25 23.15 23.15 0 0 1 10.72 3.91 27.49 27.49 0 0 1 4.45 3.67c1.35 1.37 3.46 3.38 2.82 5.49a1.23 1.23 0 0 0 1.17 1.55c1.88.05 2.72 2.48 2.13 4-.82 2.13-3.28 3.07-5.34 3.46a1.23 1.23 0 0 0 -.54 2c1.25 1.34-.52 3-1.76 3.42-1.88.59-4.12.21-6 0a68.75 68.75 0 0 1 -13.22-2.49c-1.14-.34-1.57 1.36-.49 1.76z"/><path d="m294 193.83 57.22-16.56c4.08-1.18 8.15-2.36 12.16-3.74a21.25 21.25 0 0 0 7.68-4c-4-3.06-5.79-8.05-8.66-12.14-4-5.66-10.05-9.63-16.58-11.89-10.43-3.6-22.1-4.16-32.6-.5-9.6 3.35-19.67 11.09-23 21-2.6 7.68-.94 16.11 1.14 24a8.89 8.89 0 0 1 .43 3.88l1.43.64" fill="#fff"/><path d="m294.21 194.63c21-5.86 42.05-11.62 63-17.85 5-1.49 10.74-2.8 14.77-6.34a1.26 1.26 0 0 0 0-1.78c-3.23-2.58-5-6.33-7.07-9.8a31.92 31.92 0 0 0 -8-9c-7-5.35-16-7.87-24.63-8.54a47 47 0 0 0 -25.46 5c-6.91 3.65-13.35 9.25-16.72 16.41a28.68 28.68 0 0 0 -2.36 14.72 56.52 56.52 0 0 0 1.24 7.87c.31 1.36.65 2.71 1 4a10.79 10.79 0 0 1 .7 4.15 1.19 1.19 0 0 0 .54 1.31l1.43.63c1.33.59 2.5-1.35 1.15-2l-1.41-.66.53 1.31c.34-2.18-.35-4.2-.86-6.3-.55-2.25-1-4.53-1.39-6.83a31.54 31.54 0 0 1 .52-13.57c2.14-7.33 7.85-13.17 14.19-17.14a43.31 43.31 0 0 1 23.76-6.44c8.37.13 17.2 2.21 24.3 6.78a29.59 29.59 0 0 1 9.24 9.49c2.22 3.63 4.12 7.58 7.53 10.27v-1.78c-3.53 3.14-8.76 4.29-13.17 5.64-5.11 1.56-10.25 3-15.39 4.53-10.16 3-20.33 5.94-30.47 9l-17.41 5.29a.83.83 0 0 0 .44 1.6z"/><g fill="#18c4ff"><path d="m331.4 182a229.76 229.76 0 0 1 -9.89 31.51l1.71-.7c-7.27-5.41-11-14.06-14.47-22.11-.61-1.39-2.62-.18-2 1.19 3.61 8.51 7.69 17.28 15.32 22.93.67.5 1.47-.07 1.72-.69a143.81 143.81 0 0 0 9-31.76c.13-.86-1.12-1.26-1.33-.37z"/><path d="m321.24 214.19a79.25 79.25 0 0 0 1.33 11.69c.67 3.93 1.48 7.85 2.45 11.73a74.44 74.44 0 0 0 3.22 10.33 26.36 26.36 0 0 0 5.24 8.68c.85.84 2.48-.3 1.72-1.32a36.07 36.07 0 0 1 -5.09-8.74 87.45 87.45 0 0 1 -3-10q-1.41-5.58-2.43-11.24c-.68-3.76-1.14-7.57-1.86-11.32-.17-.89-1.58-.67-1.57.21z"/><path d="m306.2 169.56a15.57 15.57 0 0 1 4-5.34.85.85 0 0 0 .06-1.12.84.84 0 0 0 -1.09-.22 10.74 10.74 0 0 0 -1.46 1.31 15.57 15.57 0 0 0 -1.18 1.5 12.84 12.84 0 0 0 -1.62 3.33.71.71 0 0 0 .41.83.72.72 0 0 0 .88-.29z"/><path d="m312.32 171.47a13.1 13.1 0 0 1 3.68-5.39.83.83 0 0 0 -1.17-1.17 14.71 14.71 0 0 0 -3.83 6.19.71.71 0 0 0 .49.86.72.72 0 0 0 .87-.49z"/><path d="m318.46 173a22.38 22.38 0 0 1 1.5-2.36l.2-.27a1.13 1.13 0 0 1 .1-.13c.08-.11-.07.08 0 0l.52-.66c-.06.07 0 0 0 0a1.13 1.13 0 0 0 .1-.13 2.75 2.75 0 0 1 .22-.26c.15-.2.32-.39.48-.58a.83.83 0 0 0 0-1.17.84.84 0 0 0 -1.17 0 20.34 20.34 0 0 0 -3.3 4.86.76.76 0 0 0 1.31.76z"/><path d="m324.32 147.06a28.72 28.72 0 0 1 19.25 8.22 29.2 29.2 0 0 1 6.09 8.48c1.28 2.72 1.72 7.29 4.84 8.63a.91.91 0 0 0 .92-1.57c-1.63-1.13-2.16-2.84-2.76-4.64a31.17 31.17 0 0 0 -2.06-4.83 29.11 29.11 0 0 0 -6.8-8.33 30.36 30.36 0 0 0 -19.48-7.35.7.7 0 0 0 0 1.39z"/><path d="m358.08 174.18a.78.78 0 0 0 0-1.55.78.78 0 0 0 0 1.55z"/></g><path d="m345 221.5a3.56 3.56 0 0 0 .08.57c0 .13.09.26.14.39a10 10 0 0 0 .45.93 7.31 7.31 0 0 0 1.14 1.51.85.85 0 0 0 1.2 0 .86.86 0 0 0 0-1.2 7.67 7.67 0 0 1 -.56-.58l-.13-.16-.06-.07c.15.18.06.08 0 0l-.24-.35a6 6 0 0 1 -.39-.7l-.09-.19s-.05-.12 0 0 0 0 0 0a4.25 4.25 0 0 0 -.27-.52.69.69 0 0 0 -1.29.35z" fill="#fff"/><path d="m313.14 265.33 1.07-9.23a6.71 6.71 0 0 0 -.29-3.75 6.55 6.55 0 0 0 -2.81-2.49c-5.45-3.19-11-6.23-15.93-10.21s-9.17-9-11.13-15l3.13-4.86-15.92 3.13a7.55 7.55 0 0 0 -3.59 1.38c-2 1.79-1.55 5.06-.64 7.62 4.22 11.91 13.39 21.3 22.47 30.09 1.78 1.73 3.71 3.52 6.14 4a8.88 8.88 0 0 0 6.74-1.77 26.23 26.23 0 0 0 5-5.13c-.73 2.71 1.94 5.06 4.35 6.51.4.25.92.49 1.33.25s.09-1.11-.31-.84" fill="#18c4ff"/><path d="m313.94 265.33 1-7.78c.28-2.13.79-4.47-.58-6.34-1.22-1.66-3.38-2.58-5.11-3.58-2.08-1.21-4.16-2.42-6.21-3.7-7.59-4.72-15.09-10.77-18.06-19.54l-.1.77c1-1.62 2.07-3.25 3.13-4.86.51-.78-.33-1.61-1.13-1.46l-10.63 2-5.31 1a8.76 8.76 0 0 0 -3.76 1.43c-4.46 3.44-.76 10.67 1.16 14.5a70.13 70.13 0 0 0 10.4 14.78c2.05 2.31 4.19 4.53 6.37 6.7a60.89 60.89 0 0 0 6.32 5.91 9 9 0 0 0 9 1.35c3.25-1.29 5.52-4 7.66-6.65l-1.82-1.06c-.71 3.3 1.83 5.79 4.37 7.44 1 .66 2.82 1.39 3.5-.14a1.53 1.53 0 0 0 -1.74-2.14 1.1 1.1 0 0 0 .58 2.11l.19-.05-.84-.11-.12-1.25-.47-.29c-.21-.14-.43-.28-.63-.43a10.74 10.74 0 0 1 -1.54-1.32 3.6 3.6 0 0 1 -1.2-3.24c.21-1-1.08-2-1.82-1.05-1.73 2.14-3.52 4.41-6 5.73a6.94 6.94 0 0 1 -7.69-.56 52 52 0 0 1 -5.86-5.5c-1.89-1.87-3.75-3.78-5.54-5.74a75.15 75.15 0 0 1 -9.62-12.69 46.65 46.65 0 0 1 -3.54-7.37c-.7-1.9-1.63-4.61-.42-6.5.8-1.24 2.34-1.49 3.68-1.76l5.3-1.06 10.59-2.15-1.13-1.46c-.55.88-1.12 1.76-1.68 2.63-.46.71-1.54 1.85-1.57 2.73a6.47 6.47 0 0 0 .78 2.26 26.59 26.59 0 0 0 1.17 2.47 34.53 34.53 0 0 0 6.71 8.59 60.51 60.51 0 0 0 9.37 7.11c3.43 2.18 7.15 4 10.5 6.25 2.24 1.53 1.76 3.84 1.52 6.21l-.76 7.78c-.11 1 1.46 1 1.59 0z"/><path d="m196.4 359.15a77.13 77.13 0 0 0 63.92-33.07c1.85-2.72 3.7-5.72 6.72-7a15.83 15.83 0 0 1 6.47-.88l56.32.25a3.79 3.79 0 0 1 2.16.45c1 .67 1.09 2 1.08 3.23-.06 12-1.82 26.55 7.89 33.67 1.5 1.1 3.26 2 4.24 3.56a10 10 0 0 1 1.13 4.6q.9 10.92 1.78 21.85c.52 6.37 1 13-1.34 19-5.29 13.46-21.95 17.68-36.25 19.88-20 3.09-40.34 5.8-60.49 3.67s-40.37-9.55-54.43-24.13a16.57 16.57 0 0 1 -4.22-6.27c-1.41-4.53.73-9.31 2.24-13.81a53.62 53.62 0 0 0 2.71-20c-.34-6.13-.19-14.55 5.85-15.67a73.85 73.85 0 0 1 .87 18.06"/><path d="m196.4 359.89a76.52 76.52 0 0 0 39.92-10.37 78 78 0 0 0 16.43-12.66 75.15 75.15 0 0 0 6.78-7.92c2.07-2.77 3.77-6.32 6.72-8.28a10.35 10.35 0 0 1 5.71-1.43c2.18-.05 4.36 0 6.53 0l13.71.08 27.41.13h6.73 3.24c1 0 1.95 0 2.26 1.07.42 1.48.12 3.32.09 4.84s-.08 3.22-.1 4.84c-.09 6.19 0 12.75 2.42 18.55a18.34 18.34 0 0 0 5.12 7.12c1.31 1.09 2.88 1.87 4.11 3.06 1.43 1.38 1.6 3.3 1.75 5.18.72 8.84 1.66 17.69 2.09 26.54.35 7.36-.64 14.69-5.84 20.28-4.14 4.46-9.82 7.15-15.53 9a122.79 122.79 0 0 1 -19.63 4c-9 1.33-17.94 2.52-27 3.2-16.46 1.23-33.22.65-49.11-4.17a85.83 85.83 0 0 1 -20.19-9 71.16 71.16 0 0 1 -9-6.53c-2.81-2.4-6-5.08-7.79-8.36-2.08-3.78-.85-8 .45-11.83a69.19 69.19 0 0 0 3.24-12.4 65.14 65.14 0 0 0 .44-12.09 29 29 0 0 1 .58-8.37c.63-2.43 1.92-4.51 4.51-5.05l-1.33-.76a77.74 77.74 0 0 1 .88 17.77c-.08 1.33 1.95 1.31 2.06 0a74.69 74.69 0 0 0 -.85-18.35 1.1 1.1 0 0 0 -1.33-.76c-6 1.23-6.77 8.33-6.78 13.35a112.63 112.63 0 0 1 -.1 11.62 55.91 55.91 0 0 1 -3.1 13.13c-1.37 3.85-2.84 8-1.87 12.1.91 3.84 3.94 6.82 6.69 9.46a74 74 0 0 0 18.76 13.12c14.52 7.12 30.67 10 46.75 10.31a207.55 207.55 0 0 0 27.86-1.57c8.45-1 16.94-2.13 25.3-3.69 11.89-2.22 26.16-6.45 31.77-18.32 3.64-7.7 2.45-16.44 1.78-24.63l-1.16-14.16c-.3-3.74 0-8.21-3.13-10.86-1.34-1.13-2.91-2-4.21-3.13a15.59 15.59 0 0 1 -2.91-3.51 23.9 23.9 0 0 1 -3-8.89 62.88 62.88 0 0 1 -.55-10.17c0-3.33.38-6.75.12-10.07a3.91 3.91 0 0 0 -2.05-3.58 6.1 6.1 0 0 0 -2.51-.36h-3.74l-14.2-.05-28.41-.11h-7a48.3 48.3 0 0 0 -6.7.18c-3.79.52-6.34 2.87-8.49 5.87s-4.18 6.06-6.62 8.87a74.5 74.5 0 0 1 -7.6 7.58 78.06 78.06 0 0 1 -39.55 18.05 72.19 72.19 0 0 1 -10.89.72.75.75 0 0 0 0 1.49z"/><path d="m348 394.5q22.11 58.58 41.26 118.2c31.38 97.65 56.9 198.22 60 300.73.69 22.84 2.15 49.51 21 62.43a536.11 536.11 0 0 1 -70.23-.38c-6.14-.43-13.05-1.38-16.7-6.33-2.43-3.28-2.81-7.59-3.17-11.65a441.91 441.91 0 0 0 -28.25-121c-6.06-15.62-13.06-31-16.84-47.32-4.38-18.87-4.33-38.44-5.59-57.77-.3-4.63-.7-9.38-2.72-13.56s-5.67-7.65-9-11c-48.78-49.06-61-123.26-63.15-192.37"/><path d="m347.14 394.75q18.33 49.41 34.85 99.48c10.73 32.62 20.86 65.45 29.88 98.58s16.88 66.54 23 100.31a838.21 838.21 0 0 1 12.38 102c.81 14.26.57 28.65 2.51 42.82 1.63 11.88 5 24.17 13.29 33.23a40 40 0 0 0 6.64 5.76l.61-2.24a533.83 533.83 0 0 1 -63.12.16c-7.81-.45-20 .24-24-8.18-2-4.13-1.84-9.17-2.28-13.63q-.75-7.65-1.77-15.25a443.71 443.71 0 0 0 -11.7-57.79 517.3 517.3 0 0 0 -19.57-56.67 276.17 276.17 0 0 1 -10.12-28.33 162.53 162.53 0 0 1 -5.16-30.35c-.86-10.13-1.18-20.3-1.78-30.44-.26-4.4-.42-8.93-1.64-13.19a26.27 26.27 0 0 0 -6.16-10.39c-5.7-6.28-11.76-12.08-17-18.75a176.6 176.6 0 0 1 -13.89-20.4 222 222 0 0 1 -19.83-45.35c-10.15-32.07-14.35-65.76-16-99.26q-.31-6.19-.5-12.39c0-1.51-2.4-1.52-2.35 0 1.08 33.86 4.39 68 13.26 100.76 8.61 31.8 22.82 62.45 45.13 87 6.22 6.85 14.05 12.55 15.82 22.16.93 5 1 10.26 1.23 15.34.27 5.24.5 10.47.81 15.7a221.1 221.1 0 0 0 3.47 30 176.91 176.91 0 0 0 8.76 28.81c7.32 19.13 15.1 37.92 20.9 57.6a442.33 442.33 0 0 1 13.09 59c1.52 10.11 2.2 20.31 3.58 30.43.51 3.74 1.63 7.44 4.43 10.11 2.6 2.49 6.14 3.72 9.61 4.38a104 104 0 0 0 13.16 1.23q7.83.45 15.66.69 15.9.49 31.81 0 8.07-.22 16.13-.7a1.21 1.21 0 0 0 .6-2.23c-10.56-7.39-15.5-19.5-17.84-31.78-2.57-13.52-2.33-27.39-3-41.09a817.36 817.36 0 0 0 -11.04-100.44c-5.71-33.36-13.19-66.4-21.85-99.11s-18.58-65.34-29.1-97.58q-16.12-49.47-34.42-98.18c-1.55-4.12-3.11-8.22-4.69-12.33-.42-1.11-2.22-.64-1.8.5z"/><path d="m195 375.34a594.1 594.1 0 0 0 -25.72 147.92c-.71 15.72-.82 31.63-4.63 46.89-4.24 17-12.88 32.42-21.42 47.66l-114.86 204.88c-1.65 2.93-3.33 6-3.37 9.39-.05 4.79 3.24 8.92 6.54 12.4a127.75 127.75 0 0 0 52.46 33.18c1.55-35 34-59.06 60.27-82.29 27.62-24.43 190-161 119-407.81"/><path d="m194.29 375.15a558.24 558.24 0 0 0 -23.29 110.85c-2.06 18.83-2.62 37.67-3.75 56.56-.58 9.64-1.6 19.28-4.08 28.64a139.13 139.13 0 0 1 -10.25 26.16c-8.48 17-18.34 33.47-27.64 50.08l-29.2 52.1-58.16 103.74-7.36 13.14c-2 3.65-4.5 7.31-5.89 11.28-2.75 7.85 2.6 14.14 7.8 19.39a127.46 127.46 0 0 0 40.07 27.3q5.49 2.37 11.18 4.26a1 1 0 0 0 1.29-1c1.29-25.54 19.36-45.29 37.3-61.66 9.88-9 20.17-17.57 30.13-26.5q9.63-8.64 18.75-17.83 12.63-12.75 24.1-26.57a398.22 398.22 0 0 0 25.89-34.87 375.76 375.76 0 0 0 24.91-43.77 362.18 362.18 0 0 0 20.33-51.82 359.62 359.62 0 0 0 12.89-60.54 380.5 380.5 0 0 0 2.16-69.09 439 439 0 0 0 -11.76-77.48q-2.47-10.2-5.37-20.3a1.14 1.14 0 0 0 -2.19.61 459.52 459.52 0 0 1 15.75 80.07 388.46 388.46 0 0 1 .82 71 357.53 357.53 0 0 1 -10.8 62.81 355.73 355.73 0 0 1 -19.18 54.14 372.6 372.6 0 0 1 -24.18 45.25 390 390 0 0 1 -26.22 37q-11.64 14.55-24.57 28-9.65 10-19.93 19.37c-7.36 6.71-14.92 13.21-22.44 19.74-17.89 15.55-37.46 32.62-45.29 55.79a62 62 0 0 0 -3.11 16.66l1.29-1a126.64 126.64 0 0 1 -42.83-24.37c-3.16-2.74-6.2-5.61-9.07-8.65s-6.05-6.74-6.19-11.18 3-8.88 5.16-12.71l7.12-12.69q28.47-50.77 57-101.56l28.72-51.22c9.25-16.51 18.82-32.89 27.67-49.62 8.32-15.74 14.61-31.88 16.72-49.66 2.2-18.45 1.9-37.16 3.49-55.68a610.54 610.54 0 0 1 19.91-110.43c1.24-4.46 2.48-8.93 3.78-13.38a.73.73 0 0 0 -1.4-.38z"/><path d="m585.86 204.3c-98.34 68.08-315.77 190.49-421.19 247-6.6 3.54-13.43 7.3-17.78 13.4s-5.43 15.23-.37 20.75c3.69 4 9.63 5.19 15.09 4.85 8.77-.55 17-4.32 24.91-8.14 107.18-51.67 312.48-193.61 408.37-264.03 3.11-2.28 6.47-5 7.06-8.78s-6.12-14.41-16.09-5" fill="#18c4ff"/><path d="m628.61 312.88a120.5 120.5 0 0 0 -13-78.78c-5.1-9.22-11.4-17.72-17.71-26.16-15.28-20.46-31.18-41.13-52.41-55.35a20.7 20.7 0 0 1 -5.49-4.59c-1.42-1.93-2-4.67-.82-6.73a8.78 8.78 0 0 1 2.89-2.66 135.85 135.85 0 0 1 22.67-12.25 15.3 15.3 0 0 1 6.31-1.6c2.65.09 5.07 1.47 7.3 2.9 22 14.06 38.08 35.68 49.55 58.79 19 38.24 29.13 86.7 5.87 125.74a5.09 5.09 0 0 1 -2.54 2.53c-1.17.37-2.74-.57-2.47-1.77"/><path d="m629.26 313.06a119.37 119.37 0 0 0 -.25-45.21 125.94 125.94 0 0 0 -17.07-42.92c-4.34-6.9-9.29-13.4-14.15-19.92-4.57-6.13-9.18-12.21-14-18.13-9.54-11.72-19.92-22.81-32.06-31.89-1.54-1.16-3.12-2.28-4.72-3.36a38.73 38.73 0 0 1 -4.26-3 7.22 7.22 0 0 1 -2.68-4.28c-.24-1.83.8-3.07 2.21-4.09a119.39 119.39 0 0 1 21.22-11.83 26.19 26.19 0 0 1 5.72-2.1 8.72 8.72 0 0 1 5.49.88 58.76 58.76 0 0 1 9.12 6 119.62 119.62 0 0 1 16 14.35 161.1 161.1 0 0 1 24.6 35.19 200.08 200.08 0 0 1 16 39.85 141.68 141.68 0 0 1 5.5 42.49 98.48 98.48 0 0 1 -10.23 41.53q-1.29 2.38-2.7 4.68a7.82 7.82 0 0 1 -1.37 1.94c-.51.46-2 .88-1.89-.27.13-1.34-2-1.33-2.1 0a2.74 2.74 0 0 0 2.36 2.83 3.89 3.89 0 0 0 3.75-1.71 32.44 32.44 0 0 0 2.89-4.81q1.33-2.46 2.52-5a97.84 97.84 0 0 0 7-21.22c3-14.57 2.8-29.6.43-44.26a180.7 180.7 0 0 0 -12.84-42.8 187.11 187.11 0 0 0 -22.16-38.65 127.6 127.6 0 0 0 -32.24-30.59c-3.26-2.1-6.66-3.81-10.64-3.1a26.91 26.91 0 0 0 -5.75 2c-1.91.82-3.79 1.68-5.66 2.59q-5.81 2.82-11.32 6.18c-1.75 1.06-3.48 2.15-5.17 3.29a8.35 8.35 0 0 0 -3.5 4c-1.2 3.47.78 7.22 3.39 9.46 2.9 2.48 6.28 4.41 9.33 6.71a152.79 152.79 0 0 1 17.65 15.89c11 11.43 20.6 24.16 30.11 36.85 5.16 6.89 10.25 13.85 14.72 21.2a117.24 117.24 0 0 1 10.35 21.76 119.65 119.65 0 0 1 6.44 47.25 114.66 114.66 0 0 1 -1.3 11.86c-.13.84 1.14 1.21 1.3.36z"/><g fill="#fff"><path d="m584.83 212.14-48.51 31.49q-36.32 23.61-72.71 47.21c-16.32 10.57-32.55 21.32-49.14 31.45-42.09 25.71-85.41 49.33-129 72.38-21.93 11.6-43.92 23.08-65.88 34.62q-16.29 8.56-32.52 17.21-8.12 4.35-16.19 8.73c-4.8 2.6-9.82 5-14.33 8.09-3.51 2.41-6.47 5.44-7.84 9.55-.38 1.12 1.37 1.58 1.76.48 1.73-4.85 6.12-7.85 10.4-10.31 5.08-2.93 10.3-5.63 15.46-8.41q16.2-8.72 32.45-17.34c21.65-11.52 43.39-22.89 65.07-34.36 43.35-22.93 86.55-46.15 128.64-71.31 18.56-11.1 36.69-22.86 54.84-34.6q35.94-23.24 71.77-46.65 26.74-17.46 53.44-35l3-2c.78-.51.05-1.76-.73-1.25z"/><path d="m150.34 480.65 1-.19a8.71 8.71 0 0 0 1-.22.74.74 0 0 0 -.2-1.44 10 10 0 0 0 -1.14.2l-1.07.19a.72.72 0 0 0 -.45.35.76.76 0 0 0 -.08.59.8.8 0 0 0 .35.46.86.86 0 0 0 .59.07z"/><path d="m154.5 484.86a.72.72 0 0 0 0-1.43.72.72 0 0 0 0 1.43z"/><path d="m588.67 209.3a1.5 1.5 0 0 0 -.18.24l-.06.14-.06.14a2.91 2.91 0 0 0 0 .31 1.36 1.36 0 0 0 0 .2.78.78 0 0 0 0 .21 1.69 1.69 0 0 0 .12.28c0 .07.1.13.15.2s0 0 0 0a1.55 1.55 0 0 0 .24.19 1 1 0 0 0 .63.08.69.69 0 0 0 .28-.15.58.58 0 0 0 .21-.23l.08-.19a.82.82 0 0 0 0-.44l-.08-.19a.83.83 0 0 0 -.29-.3h-.07l.16.13a.27.27 0 0 1 -.07-.08l.12.17v-.1l.08.19a.5.5 0 0 1 0-.13v.21-.13.21-.1l-.08.19a.22.22 0 0 1 0-.08l-.12.16a.6.6 0 0 0 .16-.25.63.63 0 0 0 .07-.3.67.67 0 0 0 -.07-.31.6.6 0 0 0 -.16-.25l-.16-.12a.73.73 0 0 0 -.4-.11h-.21a.73.73 0 0 0 -.35.2z"/><path d="m592.2 210.05.2.15a.62.62 0 0 0 .27.09.57.57 0 0 0 .29 0 .47.47 0 0 0 .25-.13.61.61 0 0 0 .19-.2l.07-.18a.65.65 0 0 0 0-.39l-.07-.18a.81.81 0 0 0 -.26-.26l-.21-.13a.58.58 0 0 0 -.27-.09.57.57 0 0 0 -.29 0 .66.66 0 0 0 -.25.13.46.46 0 0 0 -.18.21l-.08.17a.81.81 0 0 0 0 .38l.08.18a.72.72 0 0 0 .26.26z"/></g><path d="m245.33 343.12c6.5-5.76 10.62-13.85 12.76-22.27s2.41-17.19 2.18-25.87a226.1 226.1 0 0 0 -12.69-68.75c-.85-2.43-2.48-5.34-5.05-5.06a22.13 22.13 0 0 1 11.22-1.65 5.29 5.29 0 0 1 3.08 1.13 5.86 5.86 0 0 1 1.4 2.65 256.66 256.66 0 0 1 12.51 80.11c0 9.84-.71 19.94-4.72 28.94"/><path d="m245.81 343.6c13.19-11.38 15.69-29.81 15.49-46.25a224 224 0 0 0 -7.52-54.63q-2-7.58-4.53-15c-1.06-3.11-2.61-7.9-6.72-7.66l.29 2.15a20.33 20.33 0 0 1 11.56-1.5c2.15.44 2.55 2.14 3.15 4q1 3.06 1.87 6.15 3.48 12 5.8 24.3a253.55 253.55 0 0 1 4.37 50.24c-.12 8.94-.91 18.08-4.55 26.35-.59 1.34 1.4 2.52 2 1.16 3.38-7.69 4.5-16 4.79-24.36a235.64 235.64 0 0 0 -.72-26.57 257.19 257.19 0 0 0 -9.73-52.4c-.68-2.33-1.37-4.66-2.16-7a5.5 5.5 0 0 0 -3.67-3.91c-4.21-1.22-9.33-.27-13.28 1.39-1 .43-1.06 2.23.29 2.15 3.4-.21 4.53 5.72 5.31 8.07q2.07 6.18 3.76 12.49a226.5 226.5 0 0 1 5.32 25.51 227.14 227.14 0 0 1 2.35 26.17c.28 8.73.08 17.58-2.06 26.1-2.09 8.28-6.07 16.16-12.35 22-.64.59.3 1.51.95 1z"/><path d="m292.33 494.64c-6.62 17.06-11.59 35-13.69 53.16-.12 1 1.65 1.28 1.83.25 3.13-18 7.21-35.76 13.32-53 .33-.92-1.11-1.29-1.46-.4z" fill="#18c4ff"/><path d="m173.25 269.17c-22.41 7.53-39.43 29-41.58 52.57-1.63 17.83 4.68 35.65 14.11 50.88s21.86 28.33 33.89 41.61a60.67 60.67 0 0 1 8.06 10.38c2.76 4.86 4.15 10.37 6.5 15.44s6 10 11.39 11.63a4.46 4.46 0 0 0 3.67-.14c1.07-.68 1.38-2.49.31-3.17a4.7 4.7 0 1 0 7.57-4.18 13.61 13.61 0 0 0 4.18 4.42c1.77 1 4.22 1.13 5.72-.27 2.38-2.22.89-6.15-.73-9 2.16 2.76 5.76 5.81 8.7 3.9s1.56-6.53-.18-9.64l-8.11-14.47a2.5 2.5 0 0 1 -.43-2.16c.38-.82 1.46-.95 2.32-1.2 3.2-.93 4.72-4.95 3.78-8.14s-3.69-5.55-6.64-7.08-6.21-2.4-9.23-3.8c-11.68-5.4-18.5-17.65-23.34-29.57s-8.77-24.69-17.55-34.1a17.17 17.17 0 0 1 8.7-5.18" fill="#fff"/><path d="m227.45 419c-.2-.49-.5-1-.21-1.49s.66-.41 1.08-.51a6.88 6.88 0 0 0 2.16-.81 7.08 7.08 0 0 0 2.75-3.27 8.87 8.87 0 0 0 -1.41-9c-2.33-3-5.77-4.69-9.24-6-3.71-1.44-7.3-2.81-10.55-5.15-12.29-8.85-17.11-24.43-22.5-37.82-3.27-8.12-7.07-16.08-13.1-22.54v1.55a16.18 16.18 0 0 1 8.22-4.89 1.1 1.1 0 0 0 -.58-2.12 18.94 18.94 0 0 0 -9.18 5.46 1.12 1.12 0 0 0 0 1.55c10.58 11.58 14 27.45 20.59 41.25 3.05 6.34 6.89 12.44 12.16 17.18a33.25 33.25 0 0 0 8.69 5.73c3.73 1.66 7.87 2.62 11.2 5.08 2.95 2.18 5.16 6 3.19 9.58a4.4 4.4 0 0 1 -1.75 1.8c-.73.39-1.58.48-2.31.88-1.74.95-1.49 2.7-.53 4.14.42.64 1.66.24 1.32-.55z"/><path d="m226.34 440.09a.73.73 0 0 0 0-1.45.73.73 0 0 0 0 1.45z"/><path d="m216.41 443.82a1.28 1.28 0 0 0 -.12.94 1.5 1.5 0 0 0 .19.6 7.12 7.12 0 0 0 .46.66 14.71 14.71 0 0 0 1.17 1.44 1.64 1.64 0 0 0 .33.26.89.89 0 0 0 .31.15l-.33-.2c0 .05.13.1.17.14s.11.09.16.15l.56.56a4.43 4.43 0 0 0 .77.6c.24.15.48.27.71.44a1.1 1.1 0 1 0 1.11-1.9l-.2-.1c-.17-.07.1.11 0 0l-.3-.26-.34-.26c.09.07.16.12 0 0l-.31-.24c.25.19 0 0 0 0a3.88 3.88 0 0 1 -.31-.26 3.7 3.7 0 0 0 -.28-.28c.07 0 .13.17 0 0l-.06-.08c.09.19.1.2 0 0a2.61 2.61 0 0 0 -.42-.62c-.08-.09-.15-.2-.23-.29.23.26.06.09 0 0l-.13-.18-.48-.64a3 3 0 0 0 -.83-.93 2.45 2.45 0 0 0 -.52-.24 1.07 1.07 0 0 0 -1.16.46z"/><path d="m209.13 452.49a2.31 2.31 0 0 0 .46.05 1.32 1.32 0 0 0 1-.47 3.6 3.6 0 0 0 .49-.67 3 3 0 0 0 .3-.77 1.47 1.47 0 0 0 -.28-1.54l.18.24.12.27a1.55 1.55 0 0 1 0-.21v.3c0-.13 0-.25 0-.37v.29a3.84 3.84 0 0 0 -.21-1.06 2 2 0 0 0 -.86-1l.22.17a.8.8 0 0 0 -.13-.13 1.09 1.09 0 0 0 -1.64.11 1.1 1.1 0 0 0 .31 1.62l.16.08-.21-.17v.06l-.17-.22a3 3 0 0 1 .33.58l-.12-.27a2.13 2.13 0 0 1 .13.45v-.29a.45.45 0 0 1 0 .11v-.3a1.29 1.29 0 0 1 0 .21l.29-.5.24-.18a1.27 1.27 0 0 0 -.62.91 3 3 0 0 1 -.11.32l.12-.29a2.63 2.63 0 0 1 -.36.63l.2-.25a3.16 3.16 0 0 0 -.37.45 1.61 1.61 0 0 0 -.18.77 1.08 1.08 0 0 0 .79 1z"/><path d="m173.06 268.48c-23.16 6.44-40.31 29.37-42.6 52.9-2.91 30 15.45 56.41 34.18 77.85 5.56 6.37 11.42 12.47 17 18.85a42.73 42.73 0 0 1 7 10.72c1.7 3.88 2.92 7.94 4.67 11.8.58 1.29 2.49.18 1.9-1.11-1.61-3.48-2.79-7.14-4.25-10.69a41.05 41.05 0 0 0 -5.28-9.26c-4.36-5.7-9.5-10.83-14.3-16.15-9.67-10.73-19.23-21.78-26.43-34.36-7.06-12.34-12.07-26.38-12.26-40.72a59.84 59.84 0 0 1 10.18-34 66.3 66.3 0 0 1 30.6-24.47c.85-.34.54-1.65-.38-1.39z"/><g fill="#18c4ff"><path d="m337.3 413.7a30.53 30.53 0 0 0 4.9 12.77c2.42 3.74 5.7 7.56 9.6 9.81.8.46 1.78-.7 1-1.31a59.14 59.14 0 0 1 -4.91-4.15 32.62 32.62 0 0 1 -4.24-5.21 40.6 40.6 0 0 1 -5-12.09c-.2-.72-1.43-.61-1.34.18z"/><path d="m41.75 803.55q11.46 7.23 23 14.37a34.53 34.53 0 0 0 5.13 3c2 .8 3.77.2 5.81.12 4.08-.16 7.46 3.29 10.36 5.71 3.78 3.15 7.45 6.45 11.07 9.79.94.87 2.33-.5 1.41-1.41-3.12-3.06-6.35-6-9.68-8.83-3-2.53-6.08-5.54-9.85-6.8a10.9 10.9 0 0 0 -5.35-.21c-2.42.37-4-.61-6-1.82l-11.7-7.06c-4.47-2.7-9-5.34-13.45-8a.68.68 0 0 0 -.69 1.18z"/><path d="m381.67 841c8.29.76 17.93 1 25.26-3.58a22.38 22.38 0 0 0 4.83-4.17 17.56 17.56 0 0 1 5.44-4.64c3.79-1.79 8.23-1.61 12.32-1.66 4.74 0 9.41-.32 13.64-2.67 1.2-.67.13-2.48-1.08-1.84-7.54 3.95-16.26.9-24.09 3.61a14.34 14.34 0 0 0 -5.07 3c-1.74 1.58-3.08 3.55-4.86 5.11a23.28 23.28 0 0 1 -11.62 5c-4.88.83-9.84.61-14.77.52-.89 0-.86 1.29 0 1.37z"/></g><path d="m238.05 224c-8.78 1.48-16.85 5.64-24.6 10-17.89 10.09-34.92 21.63-51.93 33.14a22.85 22.85 0 0 0 -6.12 5.32c-4 5.72-2 13.6.66 20.07a144.75 144.75 0 0 0 21.16 35.85c1.84 2.28 4 4.67 6.95 5a11.58 11.58 0 0 0 4.6-.72 209.35 209.35 0 0 0 43.4-18.88c3.57-2.07 7.16-4.3 9.75-7.52s4-7.62 2.77-11.55" fill="#fff"/><path d="m237.84 223.23c-7.44 1.06-14.42 4-21 7.57-6.84 3.67-13.52 7.67-20.12 11.76s-13.27 8.44-19.82 12.79c-3.21 2.13-6.4 4.28-9.6 6.43s-6.34 4.09-9.3 6.39a14.75 14.75 0 0 0 -5.52 7.7 19.73 19.73 0 0 0 -.09 9 48.84 48.84 0 0 0 3.17 9.62q2.05 4.86 4.44 9.56a145.48 145.48 0 0 0 11.31 18.58 81.79 81.79 0 0 0 6.55 8.39c2.18 2.33 4.89 4 8.18 3.56a34 34 0 0 0 6.15-1.69c2-.66 4.08-1.35 6.1-2.07 3.87-1.38 7.68-2.87 11.46-4.47a188.41 188.41 0 0 0 23-11.52 1.23 1.23 0 0 0 -1.24-2.13 223.3 223.3 0 0 1 -39.51 17.64c-3.13 1-6.83 2.85-9.94 1-2.68-1.63-4.59-4.61-6.45-7.06a146 146 0 0 1 -11.35-17.51 108 108 0 0 1 -8.34-18.24c-1.91-5.87-2.66-12.68 2.28-17.28 2.49-2.33 5.56-4.08 8.37-6q4.78-3.24 9.58-6.46c6.14-4.1 12.31-8.16 18.55-12.11 7-4.42 14.11-8.73 21.36-12.74 7-3.9 14.32-7.52 22.25-9.16 1-.21.55-1.66-.42-1.52z"/><path d="m205.57 439.33a50 50 0 0 0 2.83 8.26c.94 2.18 2.13 4.67 4.42 5.71a1 1 0 0 0 1-1.71c-1.87-1.25-2.89-3.23-3.84-5.21-1.15-2.41-2.16-4.9-3.09-7.41a.68.68 0 0 0 -1.31.36z"/><path d="m212.91 434.81a17.4 17.4 0 0 0 1.19 4.19c.49 1.36 1 2.71 1.55 4.05.91 2.27 2 4.67 4.18 6a1.08 1.08 0 1 0 1.09-1.86c-1.74-1.31-2.67-3.34-3.55-5.27-.56-1.23-1.11-2.47-1.64-3.73a40.06 40.06 0 0 0 -1.49-3.72.72.72 0 0 0 -1.33.36z"/><path d="m221.47 430.38c.94 2.78 2.11 5.46 3.31 8.13.56 1.23 1.09 2.48 1.72 3.68s1.34 2.52 2.54 3c.89.33 1.5-.77 1.14-1.48a10.66 10.66 0 0 0 -1.13-1.4 13.91 13.91 0 0 1 -.93-1.58q-.9-1.71-1.77-3.42c-1.27-2.45-2.49-4.93-3.64-7.43-.32-.7-1.49-.21-1.24.52z"/><path d="m219 410.52a136 136 0 0 1 11.42 17.13c.83 1.4 2.74.18 2.12-1.24a53.66 53.66 0 0 0 -12.42-17 .79.79 0 0 0 -1.12 1.11z"/><path d="m380.4 366.91a96.86 96.86 0 0 0 107.94-36.38c3.63-5.12 6.75-10.58 9.87-16l10.52-18.4c4.13-7.22 8.41-15.31 6.62-23.43-1.2-5.47-5-10-9.09-13.83-2.8-2.63-6.84-5.2-10.2-3.34-2.45 1.35-3.27 4.71-2.36 7.35a11.66 11.66 0 0 0 5.6 6c-.62-2.74-1.53-5.55-3.54-7.52s-5.4-2.77-7.68-1.12c-2.11 1.52-2.57 4.59-1.77 7.06s2.57 4.49 4.31 6.42q-2.92-3.29-6-6.42a5.8 5.8 0 0 0 -2.42-1.73c-3-.87-5.2 3.45-4.2 6.44s3.61 5.16 5 8a8.64 8.64 0 0 0 -8.59-7.53c-2.14.08-4.55 1.48-4.52 3.62a5.38 5.38 0 0 0 1.49 3.1c4.47 5.57 10.27 12.22 7.63 18.86-1.21 3.06-4 5.17-6.65 7.12l-32.15 23.52" fill="#fff"/><path d="m470.74 279.54c.83 1.9 2.35 3.49 3.54 5.17a31.46 31.46 0 0 1 3.1 5.17c1.71 3.83 1.38 7.78-1.59 10.89a35.44 35.44 0 0 1 -4.85 4c-2 1.47-4 3-6 4.46l-11.85 8.68q-6.73 4.92-13.43 9.9c-1.1.82-.05 2.69 1.09 1.87 8.76-6.3 17.44-12.7 26.13-19.08 2.12-1.55 4.27-3.05 6.37-4.61a28 28 0 0 0 4.73-4.1 11.35 11.35 0 0 0 2.09-11.39 24.77 24.77 0 0 0 -3.46-6.37 23.67 23.67 0 0 0 -4.89-5.52c-.65-.47-1.23.41-1 1z"/><path d="m380.21 367.59c6.91 2.83 14.6 4.05 22 4.59a99.18 99.18 0 0 0 22.51-.94 97.07 97.07 0 0 0 38.59-15 99 99 0 0 0 27.86-27.88c4.41-6.64 8.22-13.67 12.17-20.58 3.87-6.76 8.25-13.45 11.21-20.67a26.78 26.78 0 0 0 2.31-11.85 21 21 0 0 0 -3.86-10.52 37 37 0 0 0 -7.72-8.18c-2.8-2.15-6.36-3.71-9.76-2-1.24.63-.15 2.48 1.09 1.86 3.16-1.58 6.67 1.13 8.87 3.19a37.1 37.1 0 0 1 6.23 7.29 18.17 18.17 0 0 1 2.93 9.67 26.31 26.31 0 0 1 -2.27 9.94 87.57 87.57 0 0 1 -5.1 9.86l-5.63 9.84c-3.73 6.51-7.33 13.12-11.38 19.44a95.71 95.71 0 0 1 -85.77 44.35c-8.15-.4-16-2.09-23.9-3.81a.71.71 0 0 0 -.38 1.37z"/><path d="m488.42 260.43c.38-.2 1 .13 1.32.27.51.21 1 .4 1.5.65a7.4 7.4 0 0 1 2.17 1.72 13.83 13.83 0 0 1 1.61 2.26c.25.4.48.82.7 1.24a3.17 3.17 0 0 0 1 1.39.86.86 0 0 0 1.29-.74c0-.58-.44-1.22-.71-1.72s-.55-1-.86-1.47a13 13 0 0 0 -2.1-2.62 9.23 9.23 0 0 0 -3-1.85c-1.05-.4-2.53-1-3.57-.31a.68.68 0 0 0 .69 1.18z"/><path d="m481 265.67a15 15 0 0 1 8.87 8.06 1.06 1.06 0 0 0 1.45.38 1.1 1.1 0 0 0 .38-1.45 15.42 15.42 0 0 0 -10.31-8.41.74.74 0 0 0 -.39 1.42z"/><path d="m474.63 271.75a16.24 16.24 0 0 1 4.15 2.59 14.46 14.46 0 0 1 1.75 1.75c.57.67 1 1.41 1.56 2.09a.92.92 0 0 0 1.45-1.12 9.23 9.23 0 0 0 -1.66-2.31 15.35 15.35 0 0 0 -1.94-1.84 15.77 15.77 0 0 0 -4.9-2.66.78.78 0 0 0 -.41 1.5z"/><path d="m620.79 852.19h341.46v25.48h-341.46z"/><path d="m608.05 808.64h242.22v55.04h-242.22z" fill="#fff"/><path d="m850.27 862.67h-232.38c-3.11 0-6.34-.25-9.44 0h-.4l1 1v-55l-1 1h232.37c3.11 0 6.34.26 9.44 0h.41l-1-1v55a1 1 0 0 0 2 0v-55a1 1 0 0 0 -1-1h-232.38c-3.15 0-6.3-.06-9.44 0h-.4a1 1 0 0 0 -1 1v55a1 1 0 0 0 1 1h232.37c3.15 0 6.3.06 9.44 0h.41a1 1 0 0 0 0-2z"/><path d="m850.27 808.64h124.73v55.04h-124.73z"/><path d="m975 862.67h-122.85a10.35 10.35 0 0 0 -1.67 0h-.21l1 1v-55l-1 1h122.84a9.43 9.43 0 0 0 1.68 0h.21l-1-1v55a1 1 0 0 0 2 0v-55a1 1 0 0 0 -1-1h-119.66c-1.61 0-3.25-.1-4.86 0h-.21a1 1 0 0 0 -1 1v55a1 1 0 0 0 1 1h119.65c1.61 0 3.26.1 4.87 0a1.47 1.47 0 0 1 .21 0 1 1 0 0 0 0-2z"/><g fill="#fff"><circle cx="630.36" cy="835.77" r="2.81"/><circle cx="648.54" cy="835.77" r="2.81"/><circle cx="666.73" cy="835.77" r="2.81"/><circle cx="684.91" cy="835.77" r="2.81"/><circle cx="703.1" cy="835.77" r="2.81"/></g><path d="m620.79 783.16h341.46v25.48h-341.46z"/><path d="m608.05 739.61h242.22v55.04h-242.22z" fill="#18c4ff"/><path d="m850.27 793.64h-232.38c-3.11 0-6.34-.25-9.44 0h-.4l1 1v-55l-1 1h232.37c3.11 0 6.34.25 9.44 0a2.81 2.81 0 0 1 .41 0l-1-1v55a1 1 0 0 0 2 0v-55a1 1 0 0 0 -1-1h-232.38c-3.15 0-6.3-.06-9.44 0h-.4a1 1 0 0 0 -1 1v55a1 1 0 0 0 1 1h232.37c3.15 0 6.3.06 9.44 0h.41a1 1 0 0 0 0-2z"/><path d="m850.27 739.61h124.73v55.04h-124.73z"/><path d="m975 793.64h-122.85a10.35 10.35 0 0 0 -1.67 0h-.21l1 1v-55l-1 1h122.84a10.47 10.47 0 0 0 1.68 0 .74.74 0 0 1 .21 0l-1-1v55a1 1 0 0 0 2 0v-55a1 1 0 0 0 -1-1h-119.66c-1.61 0-3.25-.1-4.86 0h-.21a1 1 0 0 0 -1 1v55a1 1 0 0 0 1 1h119.65c1.61 0 3.26.1 4.87 0h.21a1 1 0 0 0 0-2z"/><g fill="#fff"><circle cx="630.36" cy="766.74" r="2.81"/><circle cx="648.54" cy="766.74" r="2.81"/><circle cx="666.73" cy="766.74" r="2.81"/><circle cx="684.91" cy="766.74" r="2.81"/><circle cx="703.1" cy="766.74" r="2.81"/></g><path d="m620.79 714.13h341.46v25.48h-341.46z"/><path d="m608.05 670.58h242.22v55.04h-242.22z" fill="#fff"/><path d="m850.27 724.61h-232.38c-3.11 0-6.34-.25-9.44 0a2.67 2.67 0 0 1 -.4 0l1 1v-55l-1 1h232.37c3.11 0 6.34.25 9.44 0h.41l-1-1v55a1 1 0 0 0 2 0v-55a1 1 0 0 0 -1-1h-232.38c-3.15 0-6.3-.06-9.44 0h-.4a1 1 0 0 0 -1 1v55a1 1 0 0 0 1 1h232.37c3.15 0 6.3.06 9.44 0h.41a1 1 0 0 0 0-2z"/><path d="m850.27 670.58h124.73v55.04h-124.73z"/><path d="m975 724.61h-122.85a10.35 10.35 0 0 0 -1.67 0 .74.74 0 0 1 -.21 0l1 1v-55l-1 1h122.84a10.47 10.47 0 0 0 1.68 0h.21l-1-1v55a1 1 0 0 0 2 0v-55a1 1 0 0 0 -1-1h-119.66c-1.61 0-3.25-.1-4.86 0h-.21a1 1 0 0 0 -1 1v55a1 1 0 0 0 1 1h119.65c1.61 0 3.26.1 4.87 0h.21a1 1 0 0 0 0-2z"/><g fill="#fff"><circle cx="630.36" cy="697.71" r="2.81"/><circle cx="648.54" cy="697.71" r="2.81"/><circle cx="666.73" cy="697.71" r="2.81"/><circle cx="684.91" cy="697.71" r="2.81"/><circle cx="703.1" cy="697.71" r="2.81"/></g><path d="m620.79 645.1h341.46v25.48h-341.46z"/><path d="m608.05 601.55h242.22v55.04h-242.22z" fill="#18c4ff"/><path d="m850.27 655.59h-232.38c-3.11 0-6.34-.26-9.44 0h-.4l1 1v-55l-1 1h232.37c3.11 0 6.34.25 9.44 0h.41l-1-1v55a1 1 0 0 0 2 0v-55a1 1 0 0 0 -1-1h-232.38c-3.15 0-6.3-.06-9.44 0h-.4a1 1 0 0 0 -1 1v55a1 1 0 0 0 1 1h232.37c3.15 0 6.3.06 9.44 0h.41a1 1 0 0 0 0-2z"/><path d="m850.27 601.55h124.73v55.04h-124.73z"/><path d="m975 655.59h-122.85a9.32 9.32 0 0 0 -1.67 0h-.21l1 1v-55l-1 1h122.84a10.47 10.47 0 0 0 1.68 0h.21l-1-1v55a1 1 0 0 0 2 0v-55a1 1 0 0 0 -1-1h-119.66c-1.61 0-3.25-.1-4.86 0h-.21a1 1 0 0 0 -1 1v55a1 1 0 0 0 1 1h119.65c1.61 0 3.26.1 4.87 0h.21a1 1 0 0 0 0-2z"/><g fill="#fff"><circle cx="630.36" cy="628.68" r="2.81"/><circle cx="648.54" cy="628.68" r="2.81"/><circle cx="666.73" cy="628.68" r="2.81"/><circle cx="684.91" cy="628.68" r="2.81"/><circle cx="703.1" cy="628.68" r="2.81"/></g><path d="m620.79 576.08h341.46v25.48h-341.46z"/><path d="m608.05 532.52h242.22v55.04h-242.22z" fill="#fff"/><path d="m850.27 586.56h-232.38c-3.11 0-6.34-.25-9.44 0-.13 0-.27 0-.4 0l1 1v-55.04l-1 1h232.37c3.11 0 6.34.25 9.44 0h.41l-1-1v55.05a1 1 0 0 0 2 0v-55.05a1 1 0 0 0 -1-1h-232.38c-3.15 0-6.3-.06-9.44 0h-.4a1 1 0 0 0 -1 1v55.05a1 1 0 0 0 1 1h232.37c3.15 0 6.3.06 9.44 0h.41a1 1 0 0 0 0-2.01z"/><path d="m850.27 532.52h124.73v55.04h-124.73z"/><path d="m975 586.56h-122.85a9.32 9.32 0 0 0 -1.67 0 1.47 1.47 0 0 1 -.21 0l1 1v-55.04l-1 1h122.84a9.43 9.43 0 0 0 1.68 0h.21l-1-1v55.05a1 1 0 0 0 2 0v-55.05a1 1 0 0 0 -1-1h-119.66c-1.61 0-3.25-.1-4.86 0h-.21a1 1 0 0 0 -1 1v55.05a1 1 0 0 0 1 1h119.65c1.61 0 3.26.1 4.87 0h.21a1 1 0 0 0 0-2.01z"/><g fill="#fff"><circle cx="630.36" cy="559.65" r="2.81"/><circle cx="648.54" cy="559.65" r="2.81"/><circle cx="666.73" cy="559.65" r="2.81"/><circle cx="684.91" cy="559.65" r="2.81"/><circle cx="703.1" cy="559.65" r="2.81"/></g><path d="m620.79 507.05h341.46v25.48h-341.46z"/><path d="m608.05 463.5h242.22v55.04h-242.22z" fill="#18c4ff"/><path d="m850.27 517.53h-232.38c-3.11 0-6.34-.25-9.44 0h-.4l1 1v-55l-1 1h232.37c3.11 0 6.34.26 9.44 0h.41l-1-1v55a1 1 0 0 0 2 0v-55a1 1 0 0 0 -1-1h-232.38c-3.15 0-6.3-.06-9.44 0h-.4a1 1 0 0 0 -1 1v55a1 1 0 0 0 1 1h232.37c3.15 0 6.3.07 9.44 0h.41a1 1 0 0 0 0-2z"/><path d="m850.27 463.5h124.73v55.04h-124.73z"/><path d="m975 517.53h-122.85a10.35 10.35 0 0 0 -1.67 0h-.21l1 1v-55l-1 1h122.84a9.43 9.43 0 0 0 1.68 0h.21l-1-1v55a1 1 0 0 0 2 0v-55a1 1 0 0 0 -1-1h-119.66c-1.61 0-3.25-.1-4.86 0h-.21a1 1 0 0 0 -1 1v55a1 1 0 0 0 1 1h119.65c1.61 0 3.26.11 4.87 0h.21a1 1 0 0 0 0-2z"/><g fill="#fff"><circle cx="630.36" cy="490.63" r="2.81"/><circle cx="648.54" cy="490.63" r="2.81"/><circle cx="666.73" cy="490.63" r="2.81"/><circle cx="684.91" cy="490.63" r="2.81"/><circle cx="703.1" cy="490.63" r="2.81"/></g><path d="m620.79 438.02h341.46v25.48h-341.46z"/><path d="m608.05 394.47h242.22v55.04h-242.22z" fill="#fff"/><path d="m850.27 448.5h-232.38c-3.11 0-6.34-.25-9.44 0h-.4l1 1v-55l-1 1h232.37c3.11 0 6.34.25 9.44 0a2.81 2.81 0 0 1 .41 0l-1-1v55a1 1 0 0 0 2 0v-55a1 1 0 0 0 -1-1h-232.38c-3.15 0-6.3-.06-9.44 0h-.4a1 1 0 0 0 -1 1v55a1 1 0 0 0 1 1h232.37c3.15 0 6.3.06 9.44 0h.41a1 1 0 0 0 0-2z"/><path d="m850.27 394.47h124.73v55.04h-124.73z"/><path d="m975 448.5h-122.85a10.35 10.35 0 0 0 -1.67 0h-.21l1 1v-55l-1 1h122.84a10.47 10.47 0 0 0 1.68 0 .74.74 0 0 1 .21 0l-1-1v55a1 1 0 0 0 2 0v-55a1 1 0 0 0 -1-1h-119.66c-1.61 0-3.25-.1-4.86 0a1.47 1.47 0 0 1 -.21 0 1 1 0 0 0 -1 1v55a1 1 0 0 0 1 1h119.65c1.61 0 3.26.1 4.87 0h.21a1 1 0 0 0 0-2z"/><g fill="#fff"><circle cx="630.36" cy="421.6" r="2.81"/><circle cx="648.54" cy="421.6" r="2.81"/><circle cx="666.73" cy="421.6" r="2.81"/><circle cx="684.91" cy="421.6" r="2.81"/><circle cx="703.1" cy="421.6" r="2.81"/></g><path d="m620.79 368.99h341.46v25.48h-341.46z"/><path d="m608.05 325.44h242.22v55.04h-242.22z" fill="#18c4ff"/><path d="m850.27 379.47h-232.38c-3.11 0-6.34-.25-9.44 0h-.4l1 1v-55l-1 1h232.37c3.11 0 6.34.25 9.44 0h.41l-1-1v55a1 1 0 0 0 2 0v-55a1 1 0 0 0 -1-1h-232.38c-3.15 0-6.3-.06-9.44 0h-.4a1 1 0 0 0 -1 1v55a1 1 0 0 0 1 1h232.37c3.15 0 6.3.06 9.44 0h.41a1 1 0 0 0 0-2z"/><path d="m850.27 325.44h124.73v55.04h-124.73z"/><path d="m975 379.47h-122.85a10.35 10.35 0 0 0 -1.67 0 .74.74 0 0 1 -.21 0l1 1v-55l-1 1h122.84a10.47 10.47 0 0 0 1.68 0h.21l-1-1v55a1 1 0 0 0 2 0v-55a1 1 0 0 0 -1-1h-119.66c-1.61 0-3.25-.1-4.86 0h-.21a1 1 0 0 0 -1 1v55a1 1 0 0 0 1 1h119.65c1.61 0 3.26.1 4.87 0h.21a1 1 0 0 0 0-2z"/><g fill="#fff"><circle cx="630.36" cy="352.57" r="2.81"/><circle cx="648.54" cy="352.57" r="2.81"/><circle cx="666.73" cy="352.57" r="2.81"/><circle cx="684.91" cy="352.57" r="2.81"/><circle cx="703.1" cy="352.57" r="2.81"/></g><path d="m782.13 225h-8.59v76.85h8.59a38.42 38.42 0 0 0 0-76.79zm0 76v-75.3a38.4 38.4 0 0 1 0 75.3z" stroke="#000" stroke-miterlimit="10" stroke-width="1.34"/><ellipse cx="774.51" cy="263.44" fill="#18c4ff" rx="38.46" ry="38.43"/><ellipse cx="774.51" cy="263.44" fill="none" rx="38.46" ry="38.43" stroke="#000" stroke-miterlimit="10" stroke-width="1.34"/><ellipse cx="774.51" cy="263.44" fill="#fff" rx="31.09" ry="31.06"/><ellipse cx="774.51" cy="263.44" fill="none" rx="31.09" ry="31.06" stroke="#000" stroke-miterlimit="10" stroke-width="1.34"/><path d="m604.47 329.58.58-8.55-76.73-5.25-.5 7.23-.09 1.32a38.45 38.45 0 0 0 76.67 5.24zm-75.92-5.19 75.18 5.14a38.44 38.44 0 0 1 -75.18-5.14z" stroke="#000" stroke-miterlimit="10" stroke-width="1.34"/><ellipse cx="566.66" cy="319.37" fill="#18c4ff" rx="38.46" ry="38.43"/><ellipse cx="566.66" cy="319.37" fill="none" rx="38.46" ry="38.43" stroke="#000" stroke-miterlimit="10" stroke-width="1.34"/><ellipse cx="566.66" cy="319.37" fill="#fff" rx="31.09" ry="31.06"/><ellipse cx="566.66" cy="319.37" fill="none" rx="31.09" ry="31.06" stroke="#000" stroke-miterlimit="10" stroke-width="1.34"/><path d="m701.18 130.1-7.64-3.92-35.15 68.36 6.45 3.31 1.18.61a38.42 38.42 0 0 0 35.11-68.3zm-34.77 67.64 34.43-67a38.41 38.41 0 0 1 -34.43 67z" stroke="#000" stroke-miterlimit="10" stroke-width="1.34"/><ellipse cx="676.85" cy="160.77" fill="#18c4ff" rx="38.46" ry="38.43"/><ellipse cx="676.85" cy="160.77" fill="none" rx="38.46" ry="38.43" stroke="#000" stroke-miterlimit="10" stroke-width="1.34"/><ellipse cx="676.85" cy="160.77" fill="#fff" rx="31.09" ry="31.06"/><ellipse cx="676.85" cy="160.77" fill="none" rx="31.09" ry="31.06" stroke="#000" stroke-miterlimit="10" stroke-width="1.34"/><path d="m462.42 224.63h8.58v-76.82h-8.58a38.42 38.42 0 0 0 0 76.79zm0-76v75.3a38.4 38.4 0 0 1 0-75.3z" stroke="#000" stroke-miterlimit="10" stroke-width="1.34"/><ellipse cx="470.03" cy="186.24" fill="#18c4ff" rx="38.46" ry="38.43"/><ellipse cx="470.03" cy="186.24" fill="none" rx="38.46" ry="38.43" stroke="#000" stroke-miterlimit="10" stroke-width="1.34"/><ellipse cx="470.03" cy="186.24" fill="#fff" rx="31.09" ry="31.06"/><ellipse cx="470.03" cy="186.24" fill="none" rx="31.09" ry="31.06" stroke="#000" stroke-miterlimit="10" stroke-width="1.34"/><g fill="#18c4ff"><path d="m753.13 188.1c17-6.1 36-8.49 53.13-1.51a48.64 48.64 0 0 1 19.09 13.79c2.64 3.19 5.37 7.11 5.9 11.3.41 3.25-1.1 7.85-4.91 8.22a4.66 4.66 0 0 1 -4-1.62c-1.28-1.66-.38-3.83.68-5.36a16.11 16.11 0 0 1 8.28-5.92 19.21 19.21 0 0 1 19.56 4.62 23.64 23.64 0 0 1 6.23 20.49 20 20 0 0 1 -5.42 10.84c-1 .94-3.51 2.72-4.52.89a3.1 3.1 0 0 1 .59-3.34c1.39-1.48 3.86-1.09 5.55-.48a15.18 15.18 0 0 1 5 3.13 22.83 22.83 0 0 1 6.1 9.24c3.05 8.42 1.53 17.45-1.5 25.64-.82 2.22-1.75 4.39-2.75 6.53-.61 1.31 1.33 2.46 2 1.14 4.49-9.38 8-19.95 5.71-30.43a27.57 27.57 0 0 0 -5.7-11.86c-2.76-3.29-7-6.46-11.44-6.55-3.88-.08-7.4 3.26-6.24 7.31a4.22 4.22 0 0 0 3.94 3.09c2.4.07 4.49-1.59 6-3.3 6.14-6.94 7.19-17.41 3.77-25.83-3.24-8-10.22-13.91-19-14.62a22 22 0 0 0 -12 2.43c-3.54 1.88-7.44 5.36-8 9.53s3.18 7.26 7.15 7c4.24-.3 6.95-4.29 7.41-8.23.57-4.93-2.23-9.69-5.06-13.5a46.08 46.08 0 0 0 -9.65-9.52c-16.85-12.44-39-12.77-58.44-7.17-2.66.77-5.28 1.65-7.88 2.61-.92.34-.53 1.81.41 1.48z"/><path d="m507.49 330.35a53 53 0 0 0 20 58.52 52.66 52.66 0 0 0 6.58 4c2.27 1.16 4.82 2.54 7.43 2.56 5 0 6.29-5.28 5.08-9.24-.59-1.94-1.86-4.35-4.06-4.76a3.3 3.3 0 0 0 -3.8 2.93 10.38 10.38 0 0 0 1.09 6 44.59 44.59 0 0 0 3.39 6.5 46.33 46.33 0 0 0 26.21 19.74 1 1 0 0 0 .56-2 45.17 45.17 0 0 1 -21.3-14 43.38 43.38 0 0 1 -6.89-11.08c-.65-1.52-1.47-3.43-.89-5.11.87-2.53 3.1.73 3.53 1.9a7 7 0 0 1 .09 5.3c-1.18 2.4-4 1.87-6.07 1.07a46.68 46.68 0 0 1 -11.6-6.77 51.67 51.67 0 0 1 -16.3-21.49 52.24 52.24 0 0 1 -1.58-33.69.74.74 0 0 0 -1.43-.4z"/><path d="m665.07 294 5.84 15.79c.36 1 2 .56 1.59-.44l-6-15.74c-.34-.89-1.77-.51-1.43.39z"/><path d="m687.59 284.8a144.69 144.69 0 0 1 .68 21.73c0 1 1.5 1 1.53 0a144.76 144.76 0 0 0 -.8-21.73c-.1-.87-1.48-.89-1.39 0z"/><path d="m716.83 286.11c-1.16 3.51-1.87 7.24-2.78 10.82s-1.88 7.21-2.72 10.84a.81.81 0 0 0 1.56.43c1-3.6 1.79-7.23 2.67-10.85s2-7.22 2.62-10.87a.7.7 0 0 0 -1.35-.37z"/><path d="m731.67 311.4c1.57-2.21 3.15-4.4 4.66-6.64a.8.8 0 0 0 -.29-1.1.81.81 0 0 0 -1.1.29c-1.58 2.19-3.08 4.44-4.61 6.67a.78.78 0 1 0 1.34.78z"/></g></svg>